<svg width="23" height="22" viewBox="0 0 23 22" fill="none" xmlns="http://www.w3.org/2000/svg">
<g clip-path="url(#clip0_146_162)">
<path d="M19.444 19.25H17.8748V19.6582C17.8748 20.4173 17.6337 21.0225 17.1515 21.4736C16.6693 21.9248 16.085 22.0859 15.3984 21.957L3.09014 19.8301C2.40362 19.7155 1.81926 19.3503 1.33707 18.7344C0.854869 18.1185 0.61377 17.431 0.61377 16.6719V2.75C0.61377 1.99089 0.920251 1.34277 1.53321 0.805664C2.14618 0.268555 2.88582 0 3.75214 0H19.444C20.3103 0 21.05 0.268555 21.6629 0.805664C22.2759 1.34277 22.5824 1.99089 22.5824 2.75V16.5C22.5824 17.2591 22.2759 17.9072 21.6629 18.4443C21.05 18.9814 20.3103 19.25 19.444 19.25ZM3.75214 8.95898C3.75214 9.61784 3.99733 10.2194 4.4877 10.7637C4.55308 10.8496 4.7288 10.9857 5.01485 11.1719C5.3009 11.3581 5.55426 11.555 5.77492 11.7627C5.99559 11.9704 6.10592 12.1745 6.10592 12.375V15.125C6.10592 15.3398 6.36337 15.5368 6.87826 15.7158C7.39315 15.8949 8.18183 16.099 9.2443 16.3281C9.88178 16.4714 10.4334 16.5251 10.8993 16.4893C11.3651 16.4535 11.7288 16.3711 11.9904 16.2422C12.2519 16.1133 12.3827 15.9701 12.3827 15.8125V13.0625C12.3827 12.862 12.493 12.6722 12.7137 12.4932C12.9343 12.3141 13.1959 12.153 13.4983 12.0098C13.8007 11.8665 13.9764 11.7734 14.0254 11.7305C14.1071 11.6732 14.2256 11.6087 14.3809 11.5371C14.5362 11.4655 14.6343 11.3903 14.6752 11.3115C14.716 11.2327 14.7364 11.0931 14.7364 10.8926C14.7364 10.248 14.4994 9.65365 14.0254 9.10938C13.5514 8.5651 12.9875 8.23568 12.3336 8.12109C11.925 8.04948 11.5409 8.08529 11.1813 8.22852C10.6909 7.49805 10.0411 7.0612 9.23204 6.91797C8.42292 6.77474 7.78136 6.98242 7.30733 7.54102C6.93138 7.2832 6.54726 7.11849 6.15496 7.04688C5.48479 6.93229 4.91677 7.0612 4.45092 7.43359C3.98507 7.80599 3.75214 8.31445 3.75214 8.95898ZM21.0132 3.73828C21.0132 3.07943 20.7476 2.52083 20.2163 2.0625C19.6851 1.60417 19.0517 1.375 18.3162 1.375H6.91503L15.3984 2.83594C16.085 2.96484 16.6693 3.33724 17.1515 3.95312C17.6337 4.56901 17.8748 5.24935 17.8748 5.99414V17.875H18.3162C19.0517 17.875 19.6851 17.6423 20.2163 17.1768C20.7476 16.7113 21.0132 16.1562 21.0132 15.5117V3.73828Z" fill="#D5D5D6"/>
</g>
<defs>
<clipPath id="clip0_146_162">
<rect width="22" height="22" fill="white" transform="translate(0.602051)"/>
</clipPath>
</defs>
</svg>
