<svg width="23" height="26" viewBox="0 0 23 26" fill="none" xmlns="http://www.w3.org/2000/svg">
<path d="M20.4444 2.6H15.1033C14.5667 1.092 13.1611 0 11.5 0C9.83889 0 8.43333 1.092 7.89667 2.6H2.55556C1.15 2.6 0 3.77 0 5.2V23.4C0 24.83 1.15 26 2.55556 26H20.4444C21.85 26 23 24.83 23 23.4V5.2C23 3.77 21.85 2.6 20.4444 2.6ZM11.5 2.6C12.2028 2.6 12.7778 3.185 12.7778 3.9C12.7778 4.615 12.2028 5.2 11.5 5.2C10.7972 5.2 10.2222 4.615 10.2222 3.9C10.2222 3.185 10.7972 2.6 11.5 2.6ZM14.0556 20.8H5.11111V18.2H14.0556V20.8ZM17.8889 15.6H5.11111V13H17.8889V15.6ZM17.8889 10.4H5.11111V7.8H17.8889V10.4Z" fill="#D5D5D6"/>
</svg>
