<svg width="25" height="24" viewBox="0 0 25 24" fill="none" xmlns="http://www.w3.org/2000/svg">
<path d="M11.49 6.2553L12.1989 6.96784L12.9079 6.2553L13.8033 5.3553C14.6629 4.49124 15.8266 4 17.0491 4C18.2674 4 19.4183 4.48717 20.271 5.40545L20.2827 5.41808L20.2949 5.4303C22.1453 7.29019 22.1453 10.2598 20.2949 12.1197L20.2919 12.1227L12.1989 20.3261L4.10598 12.1227L4.10599 12.1227L4.10301 12.1197C2.25261 10.2598 2.25261 7.29019 4.10301 5.4303L4.17763 5.3553C5.94854 3.57531 8.88488 3.57514 10.6574 5.41818L10.6633 5.42429L10.6692 5.4303L11.49 6.2553Z" stroke="#D5D5D6" stroke-width="2"/>
</svg>
